<svg width="70" height="49" viewBox="0 0 70 49" fill="none" xmlns="http://www.w3.org/2000/svg">
<path d="M69.9956 11.828V10.2281C69.9956 9.99805 69.9736 9.78305 69.9671 9.55585C69.9693 9.51127 69.9934 9.47317 69.9934 9.42787V3.02773C69.9934 1.70615 68.8931 0.626892 67.5473 0.626892H65.9165C63.6763 0.626892 61.8425 4.94887 61.8425 10.228V24.7127C63.4403 25.0306 64.6988 26.263 65.0235 27.8333H65.1033V46.2367C65.1033 47.5568 66.2029 48.636 67.5464 48.636H67.5516C68.8966 48.636 70 47.5568 70 46.2367L69.9992 27.8326V11.8278L69.9956 11.828Z" fill="#596B86"/>
<path d="M10.5912 0.537354C10.1429 0.537354 9.77654 0.896864 9.77654 1.33692V12.5415C9.77654 12.9844 9.41245 13.3411 8.96189 13.3411C8.51062 13.3411 8.14724 12.9837 8.14724 12.5415V1.33692C8.14724 0.896883 7.78095 0.537354 7.33259 0.537354C6.88422 0.537354 6.51793 0.896864 6.51793 1.33692V12.5415C6.51793 12.9844 6.15164 13.3411 5.70328 13.3411C5.2498 13.3411 4.88863 12.9837 4.88863 12.5415V1.33692C4.88863 0.896883 4.52234 0.537354 4.07397 0.537354C3.62344 0.537354 3.25932 0.896864 3.25932 1.33692V12.5415C3.25713 12.9844 2.89303 13.3411 2.44467 13.3411C1.99119 13.3411 1.63002 12.9837 1.63002 12.5415V1.33692C1.63002 0.896883 1.26372 0.537354 0.81317 0.537354C0.364827 0.537354 0 0.896864 0 1.33692V16.1992C0 17.7328 1.36922 19.035 3.26082 19.5275V46.1478C3.26082 47.468 4.36045 48.5472 5.70696 48.5472C7.05054 48.5472 8.15309 47.4679 8.15309 46.1478L8.14943 19.5275C10.0395 19.035 11.4103 17.7328 11.4103 16.1992V1.33692C11.4059 0.896883 11.0396 0.537354 10.5912 0.537354H10.5912Z" fill="#596B86"/>
<path d="M35.0001 9.70032C28.5555 9.70032 23.332 14.8283 23.332 21.1538H46.67C46.6685 14.8285 41.4452 9.70032 35.0004 9.70032H35.0001ZM35.0001 11.7617C39.5561 11.7617 43.3765 14.9003 44.3369 19.0907H25.664C26.6237 14.9001 30.4441 11.7617 35.0001 11.7617Z" fill="#596B86"/>
<path d="M33.948 0.537354H36.0462V7.40982H33.948V0.537354Z" fill="#596B86"/>
<path d="M16.9321 8.8075L22.9958 12.2423L21.946 14.0276L15.8823 10.5928L16.9321 8.8075Z" fill="#596B86"/>
<path d="M25.5704 2.37421L29.07 8.32558L27.251 9.35595L23.7514 3.40458L25.5704 2.37421Z" fill="#596B86"/>
<path d="M53.1037 8.80368L54.155 10.5883L48.0943 14.0275L47.043 12.2429L53.1037 8.80368Z" fill="#596B86"/>
<path d="M44.4635 2.37421L46.2818 3.40602L42.7778 9.35444L40.9595 8.32264L44.4635 2.37421Z" fill="#596B86"/>
<path d="M51.7234 25.7348L45.114 25.7369H18.6741V35.4682C18.6741 40.8199 23.1386 45.2002 28.5897 45.2002H40.1589C44.4467 45.2002 48.0841 42.475 49.4592 38.7132H51.7236C55.3734 38.7132 58.3353 35.8076 58.3353 32.2225C58.3353 28.641 55.3726 25.7347 51.7244 25.7347L51.7234 25.7348ZM51.7234 34.3351H50.0714V30.1166H51.7234C52.9102 30.1166 53.8721 31.0607 53.8721 32.2233C53.8721 33.391 52.9051 34.3351 51.7234 34.3351Z" fill="#596B86"/>
</svg>
