<svg width="59" height="50" viewBox="0 0 59 50" fill="none" xmlns="http://www.w3.org/2000/svg">
<path d="M32.337 46.4638C32.337 48.2022 30.9012 49.6115 29.1299 49.6115C27.3587 49.6115 25.9228 48.2022 25.9228 46.4638C25.9228 44.7253 27.3587 43.3161 29.1299 43.3161C30.9012 43.3161 32.337 44.7253 32.337 46.4638Z" fill="#596B86"/>
<path d="M42.6458 30.8428C38.8304 27.7854 34.0559 26.1152 29.1305 26.1152C24.2052 26.1152 19.4303 27.7854 15.6152 30.8428C15 31.3222 14.6065 32.0239 14.5238 32.7908C14.4408 33.5576 14.6752 34.3249 15.1747 34.9203C15.6737 35.5158 16.3957 35.8891 17.1783 35.957C17.9608 36.0244 18.7384 35.7807 19.3361 35.2805C22.1034 33.0699 25.5629 31.863 29.1311 31.863C32.699 31.863 36.1585 33.0699 38.9262 35.2805C39.5235 35.7832 40.302 36.0289 41.0857 35.9618C41.8699 35.8952 42.5931 35.5214 43.0934 34.9247C43.5933 34.3285 43.8277 33.5597 43.7434 32.7916C43.6595 32.024 43.264 31.3213 42.6462 30.8428L42.6458 30.8428Z" fill="#596B86"/>
<path d="M55.2364 24.6524C55.8831 17.6938 49.8711 11.1623 42.7536 11.0801C38.8499 -2.14792 21.3413 -3.20143 15.9806 9.47176C7.59197 11.4318 2.75438 17.2213 4.05188 24.0411C0.655772 25.6591 -0.38285 29.2151 0.119497 31.9589C0.361256 33.505 1.16344 34.9138 2.37833 35.9264C3.5933 36.939 5.13951 37.4878 6.73326 37.4718H14.1717C14.4572 37.4605 14.7068 37.2799 14.8017 37.0157C14.897 36.7515 14.8184 36.4572 14.6041 36.2725C13.6567 35.4438 13.1266 34.2498 13.1532 33.0044C13.1802 31.7594 13.761 30.5882 14.7433 29.7996C18.804 26.5447 23.8863 24.7665 29.1298 24.7665C34.3733 24.7665 39.4551 26.5447 43.5164 29.7996C45.5699 31.365 45.6624 34.6641 43.6391 36.2865C43.4268 36.4724 43.3524 36.7671 43.4514 37.0293C43.5508 37.291 43.8032 37.4669 44.0879 37.4717H51.4368C55.2743 37.6475 58.2011 34.2168 58.251 30.5146C58.1704 27.8937 57.1048 25.8304 55.2362 24.6529L55.2364 24.6524ZM10.6305 25.1996C10.4509 25.5273 10.0344 25.6501 9.70065 25.4739C8.28283 24.7239 6.6142 24.5761 5.08224 25.0647C5.4234 24.9439 5.60994 24.5838 5.50848 24.2421C5.45121 24.0257 5.40662 23.8065 5.37554 23.5853C7.06657 23.2464 8.82557 23.4945 10.351 24.2871C10.6848 24.4633 10.81 24.872 10.6304 25.1996H10.6305ZM25.149 11.5842C24.9645 11.9094 24.546 12.0262 24.2143 11.8447C21.9014 10.6282 19.2342 10.2235 16.6547 10.6981C16.8686 10.6435 17.0424 10.4913 17.1222 10.289C17.2736 9.9204 17.4339 9.55585 17.6123 9.20534C20.1297 8.98372 22.6577 9.49161 24.8835 10.6668C25.2148 10.8479 25.3339 11.2586 25.149 11.5842L25.149 11.5842ZM32.9421 17.1777C32.8402 17.3327 32.6783 17.4399 32.4942 17.4744C32.3097 17.509 32.1191 17.468 31.9661 17.3608C31.8131 17.254 31.7116 17.0902 31.685 16.9079C31.658 16.7257 31.7084 16.5406 31.8245 16.3956C34.0168 13.3206 37.5036 11.3786 41.3173 11.1072C41.4089 11.377 41.4916 11.6468 41.5693 11.9254V11.9258C41.6568 12.2161 41.9252 12.4177 42.2336 12.4249C38.5312 12.4237 35.0619 14.1983 32.942 17.1777L32.9421 17.1777ZM51.1217 24.7684C50.7421 24.7684 50.4344 24.4665 50.4344 24.0939C50.4344 23.7213 50.7421 23.4194 51.1217 23.4194C52.0723 23.417 53.0144 23.5988 53.8935 23.9546C53.889 24.283 53.8661 24.6154 53.8293 24.9438C53.8003 25.2024 53.925 25.4541 54.15 25.5914C53.237 25.049 52.1889 24.7644 51.1217 24.7684H51.1217Z" fill="#596B86"/>
<path d="M36.1217 37.0212C34.0592 35.6469 31.6236 34.9121 29.1303 34.9121C26.637 34.9121 24.2015 35.6469 22.1389 37.0212C21.2811 37.6118 20.8095 38.6063 20.9015 39.6305C20.9936 40.6547 21.6354 41.5529 22.5852 41.9869C23.5351 42.4205 24.6486 42.3242 25.5064 41.734C26.5811 41.0358 27.8414 40.6636 29.1303 40.6636C30.4192 40.6636 31.6796 41.0358 32.7542 41.734C33.3911 42.172 34.1789 42.3442 34.9452 42.2122C35.7109 42.0801 36.392 41.6549 36.8387 41.0302C37.2854 40.405 37.4605 39.6318 37.3263 38.8798C37.1917 38.1282 36.7585 37.4597 36.1216 37.0213L36.1217 37.0212Z" fill="#596B86"/>
</svg>
