<svg width="56" height="49" viewBox="0 0 56 49" fill="none" xmlns="http://www.w3.org/2000/svg">
<path d="M48.6446 7.5396C48.6446 6.67693 47.9414 5.98639 47.0621 5.98639H45.3627V9.15023H47.0621C47.9415 9.09285 48.6446 8.40231 48.6446 7.5396Z" fill="#596B86"/>
<path d="M40.3809 18.1236H45.128V26.5794L48.2342 27.1548L48.2347 18.1236H52.9818C54.3297 18.1236 55.3848 17.0305 55.3848 15.765V3.34018C55.3848 2.01727 54.2712 0.981659 52.9818 0.981659H40.3811C39.0332 0.981659 37.9781 2.07469 37.9781 3.34018V15.7075C37.9196 17.0304 39.0332 18.1235 40.3811 18.1235L40.3809 18.1236ZM43.4286 4.0306H47.0622C48.9962 4.0306 50.5789 5.58381 50.5789 7.48215C50.5789 9.3804 48.9964 10.9337 47.0622 10.9337L45.3628 10.9333V14.9598H43.4287L43.4286 4.0306Z" fill="#596B86"/>
<path d="M52.3955 30.7786L40.9084 28.7077C40.791 28.7077 40.6741 28.5926 40.6152 28.5352C39.5016 27.2123 32.4104 19.9068 27.7801 19.9068H11.5457C7.73645 19.9068 4.27827 23.4157 2.10988 26.3492C0.70319 28.1902 0 30.4336 0 32.7342V39.407C0 41.5352 1.75834 43.261 3.92673 43.261H4.80568C5.50885 46.0219 8.02921 48.0928 11.0769 48.0928C14.1246 48.0928 16.6446 46.0219 17.3482 43.261H38.5056C39.2088 46.0219 41.7291 48.0928 44.7769 48.0928C47.8246 48.0928 50.3445 46.0219 51.0481 43.261H51.1654C53.0995 43.261 54.799 41.8229 55.0337 39.9247L55.6784 35.0929C55.8533 33.0221 54.447 31.1237 52.3956 30.7787L52.3955 30.7786ZM10.9598 45.0441C9.08409 45.0441 7.5605 43.5487 7.5605 41.7078C7.5605 39.867 9.0842 38.3715 10.9598 38.3715C12.8353 38.3715 14.359 39.867 14.359 41.7078C14.4175 43.5483 12.8938 45.0441 10.9598 45.0441ZM18.6373 29.6281H8.43941C7.91203 29.6281 7.56046 29.1105 7.85316 28.6503C9.37686 26.004 13.1866 23.4156 15.0618 23.4156H17.6407C17.9923 23.4156 18.2854 23.6455 18.3438 23.991L19.3401 28.8228C19.3994 29.2257 19.0474 29.6281 18.6374 29.6281L18.6373 29.6281ZM35.0475 29.6281H23.7948C23.4432 29.6281 23.1501 29.3982 23.0916 29.0527L22.0953 24.2209C22.0369 23.8181 22.3296 23.4156 22.7985 23.4156H27.7799C29.4794 23.4156 32.996 26.0619 35.5164 28.42C35.9849 28.8802 35.6922 29.6282 35.0475 29.6282V29.6281ZM44.6592 45.0441C42.7835 45.0441 41.2599 43.5487 41.2599 41.7078C41.2599 39.867 42.7836 38.3715 44.6592 38.3715C46.5347 38.3715 48.0584 39.867 48.0584 41.7078C48.0584 43.5483 46.5344 45.0441 44.6592 45.0441Z" fill="#596B86"/>
</svg>
