<svg width="54" height="52" viewBox="0 0 54 52" fill="none" xmlns="http://www.w3.org/2000/svg">
<path d="M53.1647 49.9894H45.5372C46.9799 49.0786 47.9422 47.4884 47.9422 45.6748C47.9422 42.8424 45.5967 40.5405 42.711 40.5405C39.817 40.5405 37.4798 42.8425 37.4798 45.6748C37.4798 47.4884 38.4331 49.0782 39.8762 49.9894H16.9767C18.4194 49.0786 19.3816 47.4884 19.3816 45.6748C19.3816 42.8424 17.0361 40.5405 14.1504 40.5405C11.2564 40.5405 8.91925 42.8425 8.91925 45.6748C8.91925 47.4884 9.87249 49.0782 11.3156 49.9894H1.12278C0.658588 49.9894 0.287628 50.3619 0.287628 50.8091C0.287628 51.2563 0.658986 51.6288 1.12278 51.6288H53.1649C53.629 51.6288 54 51.2563 54 50.8091C54.0004 50.3619 53.629 49.9894 53.1649 49.9894H53.1647ZM42.7024 43.6046C43.867 43.6046 44.8117 44.5322 44.8117 45.6748C44.8117 46.8178 43.8666 47.745 42.7024 47.745C41.5379 47.745 40.5932 46.8174 40.5932 45.6748C40.5846 44.5318 41.5383 43.6046 42.7024 43.6046ZM14.1417 43.6046C15.3062 43.6046 16.2509 44.5322 16.2509 45.6748C16.2509 46.8178 15.3058 47.745 14.1417 47.745C12.9771 47.745 12.0324 46.8174 12.0324 45.6748C12.0324 44.5318 12.9771 43.6046 14.1417 43.6046Z" fill="#596B86"/>
<path d="M2.46415 14.9016L9.57695 14.9843C10.8006 15.0007 11.8043 14.0403 11.8128 12.8393C11.8295 11.6384 10.8425 10.6533 9.62737 10.6449H9.59358C9.60212 10.6033 9.60212 10.5786 9.60212 10.5374C9.61883 8.93916 8.31136 7.63073 6.6826 7.60594C5.0962 7.58954 3.78863 8.79852 3.70401 10.3388C3.34975 10.1401 2.95314 10.0322 2.51418 10.0242C1.14765 9.99906 0.0172909 11.0841 0.000186884 12.4338C-0.0165164 13.7838 1.08858 14.8852 2.46406 14.9016L2.46415 14.9016Z" fill="#596B86"/>
<path d="M41.7498 2.55464C42.214 2.55464 42.5849 2.18215 42.5849 1.73495V0.856921C42.5849 0.401321 42.2136 0.0372314 41.7498 0.0372314C41.2856 0.0372314 40.9146 0.409715 40.9146 0.856921V1.72656C40.9061 2.18178 41.2856 2.55464 41.7498 2.55464V2.55464Z" fill="#596B86"/>
<path d="M38.4503 2.81955C38.6022 3.08451 38.8892 3.23359 39.1759 3.23359C39.3193 3.23359 39.463 3.20042 39.5978 3.12607C40.0029 2.90265 40.1377 2.3975 39.9015 1.99986L39.4544 1.23773C39.2268 0.840089 38.7121 0.707792 38.307 0.939593C37.9018 1.16301 37.767 1.66816 38.0032 2.06581L38.4503 2.81955Z" fill="#596B86"/>
<path d="M36.1044 4.53364L36.8724 4.96446C37.0076 5.0388 37.1509 5.07198 37.2942 5.07198C37.5813 5.07198 37.868 4.92291 38.0199 4.65793C38.2475 4.26029 38.1127 3.76351 37.7161 3.53172L36.9481 3.0929C36.543 2.8611 36.0368 3.00178 35.8007 3.39104C35.5645 3.79669 35.6997 4.30185 36.1044 4.53365L36.1044 4.53364Z" fill="#596B86"/>
<path d="M35.7077 7.60618H36.5938C37.058 7.60618 37.4289 7.23369 37.4289 6.78649C37.4289 6.33089 37.0576 5.9668 36.5938 5.9668H35.7077C35.2435 5.9668 34.8726 6.33928 34.8726 6.78649C34.8726 7.23331 35.2439 7.60618 35.7077 7.60618Z" fill="#596B86"/>
<path d="M43.9007 3.11751C44.0359 3.19186 44.1793 3.22503 44.3226 3.22503C44.6096 3.22503 44.8963 3.07596 45.0482 2.81099L45.4953 2.05725C45.7229 1.6596 45.5881 1.16282 45.1915 0.931033C44.7864 0.699232 44.2802 0.839914 44.0441 1.22917L43.597 1.98291C43.3604 2.38856 43.4956 2.88572 43.9007 3.11752L43.9007 3.11751Z" fill="#596B86"/>
<path d="M42.433 8.06985C42.0616 7.86283 41.6398 7.75531 41.1841 7.75531C39.7414 7.75531 38.5768 8.90632 38.5768 10.3143C38.5768 11.7223 39.7495 12.8733 41.1841 12.8733H48.643C49.9256 12.8733 50.9632 11.8545 50.9632 10.5961C50.9632 9.33722 49.9171 8.31886 48.643 8.31886H48.6092C48.6178 8.2773 48.6178 8.24451 48.6178 8.20296C48.6178 6.52198 47.2256 5.16357 45.5211 5.16357C43.8589 5.17158 42.5005 6.45483 42.4329 8.06983L42.433 8.06985Z" fill="#596B86"/>
<path d="M38.4254 6.77773C38.4254 6.88524 38.4421 6.98475 38.4506 7.09226C39.193 6.4876 40.1381 6.10669 41.176 6.10669H41.2435C41.7159 5.17911 42.4924 4.43372 43.4457 3.98651C42.9477 3.68837 42.374 3.51453 41.7497 3.51453C39.9186 3.51491 38.4254 4.98078 38.4254 6.77771L38.4254 6.77773Z" fill="#596B86"/>
<path d="M3.0718 35.1824C3.0718 34.5281 3.18135 33.8903 3.40081 33.2944L4.86063 29.1704C4.47257 28.9386 4.01692 28.8059 3.53606 28.8059C2.11006 28.8059 0.954041 29.9405 0.954041 31.3401V38.5366C0.954041 39.7787 1.87388 40.8138 3.08041 41.0208L3.08002 35.1823L3.0718 35.1824Z" fill="#596B86"/>
<path d="M7.74653 26.0157L4.97925 33.8497C4.82737 34.2806 4.75162 34.7358 4.75162 35.183V41.2448H8.92819C10.1938 39.8041 12.0668 38.8929 14.1509 38.8929C16.2349 38.8929 18.108 39.8121 19.3736 41.2448H37.489C38.7546 39.8041 40.6276 38.8929 42.7117 38.8929C44.7958 38.8929 46.6688 39.8121 47.9344 41.2448H50.8369V38.777C50.8369 38.4625 50.8031 38.1643 50.7441 37.8662C50.3389 35.8788 48.6177 34.3465 46.4917 34.1978L40.2988 33.767L35.3713 25.3199C34.629 24.0611 33.262 23.2745 31.777 23.2745H11.6618C9.88974 23.2829 8.32889 24.3759 7.74666 26.0157L7.74653 26.0157ZM22.5714 27.1503C22.5714 26.6288 23.0018 26.198 23.5417 26.198H31.7597C32.1816 26.198 32.5696 26.4214 32.7806 26.7775L36.3834 32.9553C36.7547 33.5931 36.2905 34.3797 35.5397 34.3797H23.542C23.0106 34.3797 22.5716 33.9573 22.5716 33.4273L22.5714 27.1503ZM19.9645 27.1503V33.4356C19.9645 33.9572 19.5341 34.388 18.9942 34.388H9.29934C8.63277 34.388 8.16858 33.7421 8.38804 33.1291L10.5564 26.9761C10.7168 26.5125 11.1639 26.206 11.6615 26.206H18.9937C19.5341 26.198 19.9645 26.6204 19.9645 27.1503H19.9645Z" fill="#596B86"/>
<path d="M49.6127 45.6751C49.6127 46.2051 49.5451 46.7186 49.427 47.2154H51.469C52.0342 47.2154 52.4985 46.7682 52.4985 46.205V43.903C52.4985 43.3483 52.0428 42.8926 51.469 42.8926H48.997C49.3847 43.7455 49.6127 44.6811 49.6127 45.675L49.6127 45.6751Z" fill="#596B86"/>
<path d="M4.09302 42.8926C3.52783 42.8926 3.0636 43.3398 3.0636 43.903V46.205C3.0636 46.7597 3.51924 47.2154 4.09302 47.2154H7.41738C7.29929 46.7186 7.2317 46.205 7.2317 45.6751C7.2317 44.6812 7.45117 43.7456 7.84777 42.8927L4.09302 42.8926Z" fill="#596B86"/>
<path d="M20.4443 42.8926C20.8323 43.7455 21.0603 44.6815 21.0603 45.675C21.0603 46.205 20.9928 46.7185 20.8747 47.2153H35.9859C35.8678 46.7185 35.8002 46.2049 35.8002 45.675C35.8002 44.6811 36.0197 43.7455 36.4163 42.8926H20.4443Z" fill="#596B86"/>
</svg>
