<svg width="55" height="50" viewBox="0 0 55 50" fill="none" xmlns="http://www.w3.org/2000/svg">
<path fill-rule="evenodd" clip-rule="evenodd" d="M14.1532 10.8758C16.8188 10.8758 18.9924 8.43755 18.9924 5.44727C18.9924 2.45699 16.8186 0.0187073 14.1532 0.0187073C11.4877 0.0187073 9.31354 2.45784 9.31354 5.44727C9.31354 8.43712 11.4877 10.8758 14.1532 10.8758Z" fill="#596B86"/>
<path fill-rule="evenodd" clip-rule="evenodd" d="M8.72158 14.1745C9.71461 12.129 12.1883 11.2713 14.247 12.2584C15.0436 12.6408 15.6614 13.243 16.0619 13.9572C16.9565 15.2856 18.4283 16.8948 20.242 18.2133C21.6935 19.2675 23.3381 20.1115 25.0271 20.4192C26.1503 20.6237 26.8936 21.6946 26.6874 22.8103C26.4816 23.9255 25.405 24.6654 24.2813 24.461C21.9128 24.0288 19.6973 22.9127 17.7945 21.5296C17.0326 20.9768 16.3177 20.3767 15.6602 19.7591C15.5486 20.3571 15.4366 21.041 15.3289 21.7648C14.9164 24.5253 14.6566 27.5654 14.6566 28.9585C14.6566 30.8605 16.3418 33.6326 17.719 37.1023C18.9621 40.2345 19.8437 43.8431 19.9036 47.5298C19.9247 48.8528 18.8624 49.9419 17.5313 49.9622C16.2002 49.9829 15.104 48.9278 15.0833 47.6048C15.033 44.5635 14.2805 41.5243 13.2198 38.8484C12.6497 37.4113 11.9977 36.0961 11.3267 34.9556C10.9692 37.2197 10.3362 39.6509 9.38619 41.8939C8.12019 44.8846 6.27653 47.5883 3.74702 49.2625C2.63529 49.9937 1.13682 49.6914 0.401103 48.5861C-0.334166 47.4808 -0.0303393 45.9927 1.08144 45.2611C2.73709 44.1646 4.01358 42.2306 4.94325 40.0338C6.81645 35.6119 6.36016 34.1346 6.36016 28.9577C6.36016 27.2851 6.65765 23.7328 7.13008 20.5724C7.51293 18.0056 8.05085 15.5549 8.72147 14.1742L8.72158 14.1745Z" fill="#596B86"/>
<path fill-rule="evenodd" clip-rule="evenodd" d="M28.9398 24.1764H52.4478V20.1048C52.4478 19.7315 52.7592 19.4263 53.1396 19.4263C53.5199 19.4263 53.8313 19.7311 53.8313 20.1048V24.1764C54.2116 24.1764 54.5226 24.482 54.5226 24.8553C54.5226 25.2285 54.212 25.5338 53.8313 25.5338V32.3202C54.2116 32.3202 54.5226 32.625 54.5226 32.9987C54.5226 33.372 54.212 33.6777 53.8313 33.6777V40.4636C54.2116 40.4636 54.5226 40.7693 54.5226 41.1422V41.1426C54.5226 41.5154 54.212 41.8211 53.8313 41.8211V45.8934C53.8313 46.2662 53.5199 46.5719 53.1396 46.5719C52.7592 46.5719 52.4478 46.2662 52.4478 45.8934V41.8211L28.9398 41.8207V45.893C28.9398 46.2658 28.6284 46.5715 28.2485 46.5715C27.8682 46.5715 27.5568 46.2658 27.5568 45.893V41.8207C27.1765 41.8207 26.8655 41.515 26.8655 41.1422V41.1417C26.8655 40.7689 27.1761 40.4632 27.5568 40.4632V33.6764C27.1765 33.6764 26.8655 33.3707 26.8655 32.9975C26.8655 32.6242 27.1761 32.3189 27.5568 32.3189V25.533C27.1765 25.533 26.8655 25.2281 26.8655 24.8544C26.8655 24.4812 27.1761 24.1755 27.5568 24.1755V20.104C27.5568 19.7307 27.8682 19.4254 28.2485 19.4254C28.6284 19.4254 28.9398 19.7303 28.9398 20.104V24.1764ZM52.4467 25.5329H28.9398V32.3194H52.4478L52.4467 25.5329ZM52.4467 33.6764H28.9398V40.4624H52.4478L52.4467 33.6764Z" fill="#596B86"/>
<path fill-rule="evenodd" clip-rule="evenodd" d="M28.2486 49.9628C29.0101 49.9628 29.6308 49.3539 29.6308 48.6062C29.6308 47.8588 29.0101 47.2496 28.2486 47.2496C27.4867 47.2496 26.8665 47.8589 26.8665 48.6062C26.8665 49.354 27.4868 49.9628 28.2486 49.9628Z" fill="#596B86"/>
<path fill-rule="evenodd" clip-rule="evenodd" d="M53.1391 49.9628C53.901 49.9628 54.5221 49.3539 54.5221 48.6062C54.5221 47.8588 53.9014 47.2496 53.1391 47.2496C52.3776 47.2496 51.7569 47.8589 51.7569 48.6062C51.7565 49.354 52.3772 49.9628 53.1391 49.9628Z" fill="#596B86"/>
<path fill-rule="evenodd" clip-rule="evenodd" d="M38.5124 16.7354C42.0574 17.0261 44.8417 19.9417 44.8417 23.4974H31.0145C31.0145 19.9427 33.8 17.0266 37.345 16.7354C37.2765 16.63 37.2372 16.5052 37.2372 16.3721C37.2372 15.9967 37.547 15.6931 37.929 15.6931C38.3105 15.6931 38.6203 15.9972 38.6203 16.3721C38.6203 16.5052 38.5814 16.63 38.513 16.7354H38.5124Z" fill="#596B86"/>
<path fill-rule="evenodd" clip-rule="evenodd" d="M48.9905 10.604C48.9905 12.4761 50.3727 12.8896 50.3727 14.6755V22.8189C50.3727 23.1918 50.0612 23.4979 49.6814 23.4979H46.2239C45.844 23.4979 45.5322 23.1922 45.5322 22.8189V19.7652H48.9896V16.3718H45.5322V14.6754C45.5322 12.8891 46.9152 12.476 46.9152 10.6039L46.9156 8.5683H48.99V10.6039L48.9905 10.604Z" fill="#596B86"/>
<path fill-rule="evenodd" clip-rule="evenodd" d="M46.9167 5.32385H48.9911V8.03787H46.9167V5.32385Z" fill="#596B86"/>
</svg>
