<svg width="50" height="50" viewBox="0 0 50 50" fill="none" xmlns="http://www.w3.org/2000/svg">
<path fill-rule="evenodd" clip-rule="evenodd" d="M6.4346 24.6107L16.2058 34.0833C16.5722 34.4389 17.0695 34.6385 17.5877 34.6385H48.0458C48.564 34.6385 49.0613 34.8381 49.4277 35.1933C49.7941 35.5486 50 36.0307 50 36.533V42.2166C50 42.6805 49.8242 43.1283 49.5062 43.4751C49.1882 43.8219 48.7498 44.0435 48.2744 44.098L48.0458 44.1111H44.2604L46.0776 46.5947L46.0855 46.604C46.7071 47.4755 46.4841 48.6537 45.5969 49.2487L45.5576 49.2754H45.5581C45.1349 49.5587 44.6141 49.6691 44.1077 49.5828C43.6017 49.4961 43.1511 49.2195 42.8536 48.8131L39.418 44.1166L39.4141 44.1128H10.908L10.904 44.1166L7.4684 48.8131C7.1709 49.2195 6.7203 49.4961 6.21434 49.5828C5.70789 49.6691 5.18663 49.5587 4.76397 49.2754L4.72471 49.2487V49.2491C4.29591 48.9611 4.00322 48.5188 3.91248 48.0206C3.82219 47.5225 3.94084 47.0095 4.24226 46.5968L6.05947 44.1111H3.09886C2.40049 44.1111 1.75536 43.75 1.40639 43.1638C1.05742 42.5777 1.05742 41.8554 1.40639 41.2693C1.75536 40.6832 2.40051 40.3221 3.09886 40.3221L7.00733 36.533L0.571876 30.2942C0.205463 29.939 0 29.4573 0 28.955C0 28.4526 0.205452 27.9709 0.571876 27.6157L3.67162 24.6107C4.03803 24.2554 4.53489 24.0563 5.0531 24.0563C5.5713 24.0563 6.06816 24.2554 6.43457 24.6107L6.4346 24.6107ZM8.96159 38.4277L7.00736 40.3222H10.7401C10.6432 40.1158 10.5089 39.9277 10.3431 39.7669L8.96159 38.4277ZM30.4581 19.4825V32.7441H26.5497V19.4825H12.8701C12.0412 19.4825 11.2129 18.8004 10.9804 18.0181C11.3298 14.0908 13.072 10.4019 15.9108 7.57962C18.7493 4.7569 22.5085 2.97486 26.5497 2.53587V2.43184C26.5497 1.75481 26.9222 1.12939 27.5268 0.791084C28.1314 0.452777 28.8764 0.452777 29.481 0.791084C30.0856 1.12939 30.4581 1.75483 30.4581 2.43184V2.53587C34.4984 2.97483 38.2572 4.75647 41.0956 7.57832C43.9341 10.4002 45.6767 14.0878 46.0274 18.0142C45.7967 18.8003 44.9661 19.4824 44.1378 19.4824L30.4581 19.4825Z" fill="#596B86"/>
</svg>
